<svg width="24" height="24" viewBox="0 0 24 24" fill="none" xmlns="http://www.w3.org/2000/svg">
<path d="M15.33 11.0501C14.17 11.8801 13.34 13.1401 13.09 14.5801L11.55 11.6301L7.66 15.5001L8 18.0001L6.95 19.0601L5.18 15.8701L2 14.1101L3.06 13.0501L5.54 13.4001L9.43 9.50006L2 5.62006L3.41 4.21006L12.61 6.33006L16.5 2.44006C17.08 1.85006 18.03 1.85006 18.62 2.44006C19.2 3.03006 19.2 4.00006 18.62 4.56006L14.73 8.45006L15.33 11.0501ZM22 15.5001C22 18.1001 18.5 22.0001 18.5 22.0001C18.5 22.0001 15 18.1001 15 15.5001C15 13.6001 16.6 12.0001 18.5 12.0001C20.4 12.0001 22 13.6001 22 15.5001ZM19.7 15.6001C19.7 15.0001 19.1 14.4001 18.5 14.4001C17.9 14.4001 17.3 14.9001 17.3 15.6001C17.3 16.2001 17.8 16.8001 18.5 16.8001C19.2 16.8001 19.8 16.2001 19.7 15.6001Z" fill="#3F4145"/>
</svg>
