<svg width="24" height="24" viewBox="0 0 24 24" fill="none" xmlns="http://www.w3.org/2000/svg">
<path d="M15.97 13.8301C15.08 14.3501 14.34 15.0901 13.82 16.0001L11.55 11.6301L7.66 15.5001L8 18.0001L6.95 19.0601L5.18 15.8701L2 14.1101L3.06 13.0501L5.54 13.4001L9.43 9.50006L2 5.62006L3.41 4.21006L12.61 6.33006L16.5 2.44006C17.08 1.85006 18.03 1.85006 18.62 2.44006C19.2 3.03006 19.2 4.00006 18.62 4.56006L14.73 8.45006L15.97 13.8301ZM20 18.0001V15.0001H18V18.0001H15V20.0001H18V23.0001H20V20.0001H23V18.0001H20Z" fill="#3F4145"/>
</svg>
