<svg width="24" height="24" viewBox="0 0 24 24" fill="none" xmlns="http://www.w3.org/2000/svg">
<path d="M15.9907 9.78295C15.1836 9.78295 14.4209 9.9426 13.7114 10.2264L13.0905 7.52131L16.5406 4.0712C17.055 3.57453 17.055 2.71422 16.5406 2.19094C16.0262 1.66766 15.1748 1.6712 14.6604 2.19094L11.2102 5.64105L3.0506 3.76078L1.80005 5.01134L8.38985 8.45258L4.93974 11.9116L2.74018 11.6011L1.80005 12.5413L4.62045 14.1022L6.19029 16.9315L7.12156 15.9914L6.82 13.7741L10.2701 10.3417L11.1748 12.0801C10.3056 13.1444 9.78231 14.5102 9.78231 15.9914C9.78231 19.4238 12.5584 22.1998 15.9907 22.1998C19.4231 22.1998 22.1992 19.4238 22.1992 15.9914C22.1992 12.559 19.4231 9.78295 15.9907 9.78295ZM15.9907 20.426C13.5428 20.426 11.5561 18.4393 11.5561 15.9914C11.5561 13.5435 13.5428 11.5568 15.9907 11.5568C18.4386 11.5568 20.4253 13.5435 20.4253 15.9914C20.4253 18.4393 18.4386 20.426 15.9907 20.426ZM16.4342 16.2131V12.4437H15.1038V16.8783L18.3056 18.794L18.9708 17.712L16.4342 16.2131Z" fill="#3F4145"/>
</svg>
