<svg width="20" height="20" viewBox="0 0 20 20" fill="none" xmlns="http://www.w3.org/2000/svg">
<path d="M2.5 5.83317V4.1665H4.16667V3.33317C4.16667 2.40817 4.91667 1.6665 5.83333 1.6665H10.8333V7.49984L12.9167 6.24984L15 7.49984V1.6665H15.8333C16.7083 1.6665 17.5 2.45817 17.5 3.33317V16.6665C17.5 17.5415 16.7083 18.3332 15.8333 18.3332H5.83333C4.95833 18.3332 4.16667 17.5415 4.16667 16.6665V15.8332H2.5V14.1665H4.16667V10.8332H2.5V9.1665H4.16667V5.83317H2.5ZM5.83333 9.1665H4.16667V10.8332H5.83333V9.1665ZM5.83333 5.83317V4.1665H4.16667V5.83317H5.83333ZM5.83333 15.8332V14.1665H4.16667V15.8332H5.83333Z" fill="#3F4145"/>
</svg>
