<svg width="20" height="20" viewBox="0 0 20 20" fill="none" xmlns="http://www.w3.org/2000/svg">
<g clip-path="url(#clip0_7180_8039)">
<path d="M15 19.1665H13.3333V18.3332H6.66667V19.1665H5V18.3332H4.16667C3.24583 18.3332 2.5 17.5873 2.5 16.6665V5.83317C2.5 4.91234 3.24583 4.1665 4.16667 4.1665H6.66667V2.49984C6.66667 2.03984 7.04 1.6665 7.5 1.6665H12.5C12.96 1.6665 13.3333 2.03984 13.3333 2.49984V4.1665H15.8333C16.7542 4.1665 17.5 4.91234 17.5 5.83317V16.6665C17.5 17.5873 16.7542 18.3332 15.8333 18.3332H15V19.1665ZM8.33333 7.49984H6.66667V14.9998H8.33333V7.49984ZM13.3333 7.49984H11.6667V14.9998H13.3333V7.49984ZM11.6667 3.33317H8.33333V4.1665H11.6667V3.33317Z" fill="#3F4145"/>
</g>
<defs>
<clipPath id="clip0_7180_8039">
<rect width="20" height="20" fill="white"/>
</clipPath>
</defs>
</svg>
